<svg width="97" height="97" viewBox="0 0 97 97" fill="none" xmlns="http://www.w3.org/2000/svg">
<path d="M96.8749 83.4375C96.8749 90.8604 90.8603 96.875 83.4374 96.875H13.5625C6.14231 96.875 0.125 90.8604 0.125 83.4375V13.5625C0.125 6.13962 6.14231 0.125 13.5625 0.125H83.4374C90.8603 0.125 96.8749 6.13962 96.8749 13.5625V83.4375Z" fill="#673AB7"/>
<path d="M72.7682 52.8C71.0213 50.3813 68.4951 48.715 65.2432 47.8281C65.2432 47.8281 67.9845 46.8337 70.457 43.125C71.9351 40.76 72.6876 37.9112 72.6876 34.5787C72.6876 28.8006 70.5913 24.3663 66.3988 21.3294C62.2063 18.2925 57.4763 16.25 49.4407 16.25H24.3126V80.75H52.3432C59.9488 80.6963 65.6732 79.0569 69.5701 75.9125C73.4401 72.7144 75.3751 67.9844 75.3751 61.6688C75.3751 58.175 74.5151 55.2188 72.7682 52.8ZM40.4376 27C40.4376 27 51.6445 27 51.8595 27C55.9445 27 59.2501 30.3056 59.2501 34.3906C59.2501 38.4756 55.9445 41.7812 51.8595 41.7812C51.6445 41.7812 40.4376 41.7812 40.4376 41.7812V27ZM53.8751 70H40.4376V53.875H53.8751C58.3363 53.875 61.9376 57.4762 61.9376 61.9375C61.9376 66.3988 58.3363 70 53.8751 70Z" fill="white"/>
</svg>
