<svg width="36" height="36" viewBox="0 0 36 36" fill="none" xmlns="http://www.w3.org/2000/svg">
<path d="M11.9976 3.6001C7.36683 3.6001 3.59998 7.37044 3.59998 12.0024V24.0024C3.59998 28.6332 7.37032 32.4001 12.0023 32.4001H24.0023C28.6331 32.4001 32.4 28.6298 32.4 23.9978V11.9978C32.4 7.36695 28.6296 3.6001 23.9976 3.6001H11.9976ZM26.4 8.4001C27.0624 8.4001 27.6 8.9377 27.6 9.6001C27.6 10.2625 27.0624 10.8001 26.4 10.8001C25.7376 10.8001 25.2 10.2625 25.2 9.6001C25.2 8.9377 25.7376 8.4001 26.4 8.4001ZM18 10.8001C21.9708 10.8001 25.2 14.0293 25.2 18.0001C25.2 21.9709 21.9708 25.2001 18 25.2001C14.0292 25.2001 10.8 21.9709 10.8 18.0001C10.8 14.0293 14.0292 10.8001 18 10.8001ZM18 13.2001C16.7269 13.2001 15.506 13.7058 14.6059 14.606C13.7057 15.5062 13.2 16.7271 13.2 18.0001C13.2 19.2731 13.7057 20.494 14.6059 21.3942C15.506 22.2944 16.7269 22.8001 18 22.8001C19.273 22.8001 20.4939 22.2944 21.3941 21.3942C22.2943 20.494 22.8 19.2731 22.8 18.0001C22.8 16.7271 22.2943 15.5062 21.3941 14.606C20.4939 13.7058 19.273 13.2001 18 13.2001Z" fill="black"/>
</svg>
