<svg width="42" height="42" viewBox="0 0 42 42" fill="none" xmlns="http://www.w3.org/2000/svg">
<path d="M33.6 5.6001H8.39998C6.85298 5.6001 5.59998 6.8531 5.59998 8.4001V33.6001C5.59998 35.1471 6.85298 36.4001 8.39998 36.4001H33.6C35.147 36.4001 36.4 35.1471 36.4 33.6001V8.4001C36.4 6.8531 35.1456 5.6001 33.6 5.6001ZM31.7646 18.8637C31.5826 18.8805 31.3992 18.8917 31.2144 18.8917C29.1214 18.8917 27.2818 17.8165 26.2108 16.1883C26.2108 20.4569 26.2108 25.3149 26.2108 25.3961C26.2108 29.1551 23.163 32.2015 19.4054 32.2015C15.6478 32.2001 12.6 29.1523 12.6 25.3947C12.6 21.6357 15.6478 18.5893 19.4054 18.5893C19.5482 18.5893 19.6868 18.6019 19.8254 18.6103V21.9647C19.6854 21.9479 19.5496 21.9227 19.4054 21.9227C17.4874 21.9227 15.932 23.4781 15.932 25.3961C15.932 27.3141 17.486 28.8695 19.4054 28.8695C21.3248 28.8695 23.0188 27.3575 23.0188 25.4395C23.0188 25.3625 23.0524 9.8015 23.0524 9.8015H26.257C26.558 12.6673 28.8722 14.9297 31.7646 15.1369V18.8637Z" fill="black"/>
</svg>
