<svg width="114" height="114" viewBox="0 0 114 114" fill="none" xmlns="http://www.w3.org/2000/svg">
<path d="M0 114V0H114V114H0Z" fill="#FFD600"/>
<path d="M74.537 85.3322C76.7283 88.8915 79.1097 92.302 84.1542 92.302C88.3912 92.302 90.6142 90.1962 90.6142 87.2829C90.6142 83.7964 88.3152 82.5582 83.6538 80.5284L81.0983 79.439C73.7232 76.3104 68.818 72.39 68.818 64.1092C68.818 56.4775 74.6605 50.6699 83.79 50.6699C90.2912 50.6699 94.962 52.9214 98.3313 58.8177L90.3703 63.9065C88.6192 60.7779 86.7255 59.546 83.79 59.546C80.7943 59.546 78.8975 61.4365 78.8975 63.9065C78.8975 66.9592 80.7975 68.1942 85.1833 70.0847L87.7388 71.174C96.4313 74.8759 101.333 78.6569 101.333 87.1562C101.333 96.3142 94.1007 101.333 84.3917 101.333C74.8948 101.333 69.502 96.5675 66.5 90.668L74.537 85.3322ZM37.848 85.5919C39.4503 88.4609 41.8855 90.668 45.3878 90.668C48.7382 90.668 50.6667 89.3444 50.6667 84.1985V50.6667H61.2212V85.8199C61.2212 96.482 55.0367 101.333 46.0053 101.333C37.8448 101.333 31.9548 95.8044 29.5545 90.668L37.848 85.5919Z" fill="#000001"/>
</svg>
