<svg width="125" height="111" viewBox="0 0 125 111" fill="none" xmlns="http://www.w3.org/2000/svg">
<path d="M62.5 82.375C27.8312 82.375 0.687469 70.55 0.687469 55.5C0.687469 40.45 27.8312 28.625 62.5 28.625C97.1688 28.625 124.313 40.45 124.313 55.5C124.313 70.55 97.1688 82.375 62.5 82.375ZM62.5 34C28.6375 34 6.06247 45.0187 6.06247 55.5C6.06247 65.9813 28.6375 77 62.5 77C96.3625 77 118.938 65.9813 118.938 55.5C118.938 45.0187 96.3625 34 62.5 34Z" fill="#80DEEA"/>
<path d="M38.5812 110.863C35.8937 110.863 33.7437 110.325 31.5937 108.981C18.4249 101.456 21.9187 72.1625 39.1187 42.0625C47.1812 28.0875 57.125 16.2625 66.8 8.73752C77.2812 0.675019 86.6875 -1.74373 93.1375 2.01877C99.8563 5.78127 102.275 15.1875 100.663 28.3563C99.05 40.7188 93.675 55.2313 85.6125 69.2063C77.55 83.1813 67.6062 95.0063 57.9312 102.531C50.9437 107.906 44.225 110.863 38.5812 110.863ZM86.4188 5.51252C82.1188 5.51252 76.475 7.93127 70.2937 12.7688C61.1562 20.025 51.75 31.3125 43.9562 44.75C27.0249 74.0438 25.4124 99.3063 34.2812 104.413C38.85 107.1 46.375 104.681 54.7062 98.2313C63.8437 90.975 73.25 79.6875 81.0437 66.25C88.8375 52.8125 93.9438 39.1063 95.5563 27.55C96.9 16.8 95.2875 9.27502 90.7188 6.58752C89.375 6.05002 88.0313 5.51252 86.4188 5.51252Z" fill="#80DEEA"/>
<path d="M86.6874 110.863C73.2499 110.863 53.8999 94.4688 39.3874 68.9376C21.9187 38.8376 18.4249 9.54382 31.5937 2.01882C44.7624 -5.50618 68.4124 11.9626 85.8812 42.0626C93.9437 56.0376 99.3187 70.5501 100.931 82.9126C102.812 96.0813 100.125 105.219 93.4062 109.25C91.2562 110.325 89.1062 110.863 86.6874 110.863ZM34.2812 6.58757C25.4124 11.6938 27.0249 36.9563 43.9562 66.2501C60.8874 95.5438 81.8499 109.519 90.7187 104.413C95.2874 101.725 96.8999 94.2001 95.5562 83.4501C93.9437 71.8938 88.8374 58.1876 81.0437 44.7501C64.1124 15.4563 43.1499 1.48132 34.2812 6.58757Z" fill="#80DEEA"/>
<path d="M62.5 66.25C68.4371 66.25 73.25 61.4371 73.25 55.5C73.25 49.5629 68.4371 44.75 62.5 44.75C56.5629 44.75 51.75 49.5629 51.75 55.5C51.75 61.4371 56.5629 66.25 62.5 66.25Z" fill="#80DEEA"/>
</svg>
