<svg width="154" height="115" viewBox="0 0 154 115" fill="none" xmlns="http://www.w3.org/2000/svg">
<path d="M131.873 65.7645C126.554 65.7922 121.948 67.0683 118.088 68.9739C116.677 66.1553 115.246 63.6757 115.007 61.8324C114.727 59.6813 114.402 58.3948 114.741 55.8322C115.08 53.2696 116.563 49.6383 116.543 49.3651C116.522 49.0919 116.211 47.7881 113.143 47.7639C110.075 47.7431 107.451 48.3553 107.143 49.1645C106.835 49.9738 106.244 51.7963 105.877 53.6984C105.341 56.4789 99.7524 66.4009 96.5811 71.5884C95.5436 69.5618 94.6617 67.7773 94.4784 66.3663C94.1983 64.2152 93.8732 62.9287 94.2121 60.3661C94.551 57.8034 96.0347 54.1722 96.0139 53.899C95.9932 53.6258 95.6819 52.322 92.6144 52.2978C89.5468 52.277 86.922 52.8891 86.6142 53.6984C86.3064 54.5076 85.9744 56.3994 85.3484 58.2323C84.719 60.0617 77.2939 76.6099 75.3469 80.9016C74.3544 83.0873 73.4932 84.8442 72.8846 86.0407L72.8811 86.0338C72.8811 86.0338 72.8431 86.1134 72.7808 86.2482C72.2586 87.2684 71.9508 87.8322 71.9508 87.8322C71.9508 87.8322 71.9543 87.8391 71.9612 87.8529C71.5462 88.6034 71.1035 89.2985 70.8857 89.2985C70.7335 89.2985 70.4257 87.303 70.9514 84.564C72.058 78.8232 74.7106 69.873 74.6864 69.5618C74.6725 69.4027 75.1809 67.843 72.9537 67.0268C70.7888 66.2349 70.0176 67.5559 69.8205 67.5594C69.6303 67.5629 69.4885 68.0263 69.4885 68.0263C69.4885 68.0263 71.8989 57.9591 64.8889 57.9591C60.5037 57.9591 54.4309 62.7558 51.4394 67.1029C49.5512 68.1335 45.5084 70.3399 41.2235 72.695C39.5774 73.6011 37.8966 74.5245 36.3023 75.4029C36.1951 75.2819 36.0844 75.1643 35.9738 75.0432C27.4697 65.972 11.7551 59.5568 12.4191 47.3593C12.6612 42.9257 14.2036 31.2504 42.6207 17.0919C65.8987 5.49269 84.5357 8.68473 87.7554 15.757C92.355 25.8657 77.7954 44.6479 53.6217 47.3593C44.4121 48.3933 39.5601 44.8209 38.3531 43.4929C37.0839 42.0922 36.8937 42.03 36.4199 42.2928C35.6487 42.7216 36.1363 43.9563 36.4199 44.6929C37.1427 46.5708 40.103 49.9012 45.1522 51.5612C49.5962 53.0206 60.4104 53.8194 73.4863 48.7599C88.1358 43.0951 99.5725 27.3321 96.211 14.1593C92.7942 0.76169 70.5779 -3.64423 49.5512 3.82577C37.0217 8.27319 23.4754 15.2521 13.7332 24.3614C2.15128 35.1929 0.304528 44.6237 1.06536 48.5628C3.76978 62.5621 23.0638 71.6783 30.7897 78.4324C30.4093 78.6434 30.0497 78.8405 29.7246 79.0203C25.8512 80.9362 11.1429 88.6345 7.46328 96.765C3.28907 105.988 8.12728 112.608 11.3297 113.5C21.2517 116.26 31.433 111.293 36.9075 103.132C42.3786 94.9736 41.7112 84.3462 39.2004 79.4976C39.1693 79.4388 39.1347 79.38 39.1036 79.3177C40.103 78.7264 41.1232 78.1246 42.1331 77.5298C44.1043 76.3712 46.041 75.2922 47.7183 74.3792C46.7776 76.9522 46.0894 80.0405 45.7332 84.4983C45.3113 89.7342 47.4589 96.5022 50.2671 99.1651C51.5052 100.337 52.9922 100.365 53.9329 100.365C57.201 100.365 58.6916 97.6469 60.3343 94.4306C62.347 90.4881 64.135 85.8955 64.135 85.8955C64.135 85.8955 61.894 98.2971 68.0014 98.2971C70.2286 98.2971 72.4661 95.4094 73.4656 93.9396C73.469 93.9569 73.469 93.9638 73.469 93.9638C73.469 93.9638 73.5278 93.8669 73.6419 93.6767C73.8737 93.324 74.0051 93.0992 74.0051 93.0992C74.0051 93.0992 74.0085 93.075 74.0154 93.0335C74.9112 91.4807 76.8962 87.9394 79.8704 82.0982C83.7161 74.5522 87.4027 65.0971 87.4027 65.0971C87.4027 65.0971 87.745 67.4072 88.869 71.2322C89.5295 73.4801 90.9336 75.9666 92.0437 78.3529C91.1515 79.5909 90.6051 80.2999 90.6051 80.2999C90.6051 80.2999 90.6085 80.3137 90.6189 80.3379C89.9065 81.2855 89.1076 82.3057 88.2707 83.3017C85.2343 86.9157 81.6203 91.0449 81.1362 92.2346C80.5655 93.6387 80.7004 94.6693 81.8036 95.5027C82.6094 96.1079 84.0412 96.2048 85.5386 96.1045C88.2672 95.9212 90.1832 95.2434 91.1307 94.8318C92.6075 94.3096 94.3262 93.49 95.9378 92.3038C98.9155 90.1147 100.71 86.9849 100.537 82.8349C100.441 80.5489 99.7143 78.2837 98.791 76.1464C99.0607 75.7591 99.3304 75.3649 99.6037 74.9706C104.297 68.1093 107.938 60.5701 107.938 60.5701C107.938 60.5701 108.281 62.8803 109.405 66.7052C109.972 68.6384 111.096 70.7514 112.106 72.8195C107.693 76.4058 104.957 80.5731 104.006 83.3052C102.249 88.3613 103.626 90.6507 106.206 91.1729C107.375 91.4081 109.028 90.872 110.269 90.3464C111.815 89.8345 113.672 88.9803 115.408 87.7042C118.386 85.5151 121.249 82.451 121.076 78.3044C120.997 76.4162 120.485 74.5418 119.79 72.7434C123.532 71.1837 128.374 70.3192 134.543 71.0385C147.778 72.5844 150.372 80.8463 149.877 84.3046C149.379 87.763 146.606 89.6651 145.676 90.2392C144.749 90.8132 144.465 91.0138 144.541 91.4392C144.655 92.0582 145.084 92.0375 145.876 91.9026C146.966 91.7193 152.824 89.091 153.076 82.7069C153.391 74.5937 145.627 65.6919 131.873 65.7645ZM29.8629 100.154C25.4777 104.937 19.3565 106.742 16.7282 105.221C13.8923 103.578 15.0163 96.5368 20.394 91.4599C23.6725 88.3682 27.9055 85.5185 30.7137 83.7652C31.3534 83.3813 32.2907 82.8176 33.4319 82.1328C33.6221 82.0256 33.7293 81.9668 33.7293 81.9668L33.7259 81.9599C33.9472 81.8285 34.172 81.6936 34.4037 81.5518C36.3646 88.7763 34.4659 95.1362 29.8629 100.154ZM61.8006 78.4462C60.2755 82.1674 57.08 91.6917 55.1329 91.1798C53.4626 90.7406 52.4458 83.5023 54.8009 76.3782C55.9837 72.7919 58.5152 68.507 60.0023 66.8435C62.3954 64.1668 65.0307 63.2918 65.6705 64.3777C66.4832 65.7611 62.7586 76.1119 61.8006 78.4462ZM88.1842 91.0346C87.5375 91.3735 86.9427 91.5844 86.6695 91.4219C86.4654 91.3009 86.9358 90.8547 86.9358 90.8547C86.9358 90.8547 90.235 87.303 91.5354 85.688C92.2927 84.7473 93.1677 83.6303 94.1222 82.3853C94.1291 82.5098 94.1326 82.6343 94.1326 82.7553C94.1257 87.0091 90.0172 89.8795 88.1842 91.0346ZM108.509 86.4004C108.025 86.058 108.108 84.9479 109.695 81.4861C110.318 80.127 111.742 77.841 114.212 75.6554C114.499 76.5545 114.672 77.4156 114.668 78.218C114.637 83.5715 110.819 85.5704 108.509 86.4004Z" fill="#F06292"/>
</svg>
