<svg width="129" height="79" viewBox="0 0 129 79" fill="none" xmlns="http://www.w3.org/2000/svg">
<path d="M64.5 0.810791C47.3 0.810791 36.55 9.40811 32.25 26.6027C38.7 18.0054 46.225 14.7831 54.825 16.9304C59.7324 18.1559 63.2396 21.7169 67.123 25.6567C73.444 32.0718 80.7621 39.5 96.75 39.5C113.95 39.5 124.7 30.9027 129 13.7054C122.55 22.3027 115.025 25.5277 106.425 23.3804C101.52 22.1549 98.0131 18.594 94.1297 14.6541C87.806 8.23635 80.4853 0.810791 64.5 0.810791ZM32.25 39.5C15.05 39.5 4.3 48.0974 0 65.2947C6.45 56.6973 13.975 53.4724 22.575 55.6224C27.4797 56.8505 30.9869 60.4088 34.8703 64.346C41.194 70.7637 48.5148 78.192 64.5 78.192C81.7 78.192 92.45 69.5947 96.75 52.3974C90.3 60.9947 82.775 64.2197 74.175 62.0697C69.2676 60.8442 65.7604 57.2832 61.877 53.346C55.556 46.9283 48.2379 39.5 32.25 39.5Z" fill="#00ACC1"/>
</svg>
