<svg width="34" height="29" viewBox="0 0 34 29" fill="none" xmlns="http://www.w3.org/2000/svg">
<path d="M33.8013 4.23779C32.5572 4.80248 31.2208 5.18248 29.8181 5.35388C31.2507 4.47696 32.3492 3.0885 32.8666 1.43298C31.5276 2.24479 30.043 2.83472 28.4622 3.1536C27.1973 1.77577 25.3955 0.914795 23.4013 0.914795C19.5715 0.914795 16.4671 4.08898 16.4671 8.00191C16.4671 8.5573 16.5295 9.09939 16.6465 9.61625C10.8836 9.32128 5.7746 6.49919 2.353 2.21025C1.7576 3.25724 1.4157 4.4743 1.4157 5.77506C1.4157 8.2331 2.639 10.4028 4.4993 11.673C3.3631 11.6358 2.2932 11.3169 1.3585 10.7868C1.3585 10.8174 1.3585 10.8453 1.3585 10.8758C1.3585 14.3104 3.7479 17.175 6.9212 17.8248C6.3401 17.9869 5.7265 18.0732 5.0934 18.0732C4.6475 18.0732 4.212 18.028 3.7895 17.947C4.6722 20.7624 7.2332 22.8126 10.2674 22.8697C7.8949 24.771 4.9049 25.9044 1.6549 25.9044C1.0959 25.9044 0.5434 25.8712 0 25.8047C3.0693 27.815 6.7132 28.9882 10.6301 28.9882C23.3857 28.9882 30.3589 18.1888 30.3589 8.82303C30.3589 8.51611 30.3524 8.21051 30.3394 7.90625C31.6953 6.90576 32.8718 5.65814 33.8013 4.23779Z" fill="black"/>
</svg>
