<svg width="109" height="109" viewBox="0 0 109 109" fill="none" xmlns="http://www.w3.org/2000/svg">
<path d="M54.5 0.884399C40.2802 0.884399 26.6429 6.53317 16.588 16.588C6.53317 26.6429 0.884399 40.2803 0.884399 54.5C0.884399 68.7198 6.53317 82.3571 16.588 92.412C26.6429 102.467 40.2802 108.116 54.5 108.116C68.7197 108.116 82.357 102.467 92.4119 92.412C102.467 82.3571 108.116 68.7198 108.116 54.5C108.116 40.2803 102.467 26.6429 92.4119 16.588C82.357 6.53317 68.7197 0.884399 54.5 0.884399Z" fill="white"/>
<path d="M11.5027 54.5C11.5027 71.528 21.3927 86.2286 35.7386 93.2L15.2222 36.999C12.8384 42.3498 11.5027 48.2542 11.5027 54.5ZM83.5358 52.3339C83.5358 47.0207 80.679 43.3307 79.0477 40.4766C76.8627 36.9049 74.8122 33.9272 74.8122 30.3931C74.8122 26.4559 78.7655 22.7606 82.9849 22.7606C83.1757 22.7606 83.3477 22.7767 83.5385 22.7821C75.8952 15.757 65.7015 11.5 54.5027 11.5C40.0198 11.5 27.2165 18.6649 19.4254 29.6379C20.0382 29.8368 20.2505 29.7427 21.0675 29.7427C25.5529 29.7427 32.527 29.2052 32.527 29.2052C34.8383 29.0521 35.1205 32.4625 32.7931 32.742C32.7931 32.742 30.4711 33.0242 27.8803 33.1505L43.8199 80.9289L53.2262 52.7074L46.2306 33.2284C43.9167 33.1048 41.7183 32.8199 41.7183 32.8199C39.4016 32.6694 39.6704 29.1246 41.9816 29.2832C41.9816 29.2832 49.0982 29.8207 53.3148 29.8207C57.8164 29.8207 64.7744 29.2832 64.7744 29.2832C67.0883 29.13 67.3678 32.5404 65.0539 32.8199C65.0539 32.8199 62.7157 33.1021 60.1304 33.2284L75.9624 80.5553L80.2598 66.2417C82.4474 60.6517 83.5358 56.0292 83.5358 52.3339ZM55.2552 58.2517L42.3552 95.7477C46.2145 96.8926 50.2833 97.5 54.5027 97.5C59.5042 97.5 64.3094 96.6292 68.7895 95.0624C68.682 94.8716 68.561 94.6781 68.4724 94.4712L55.2552 58.2517ZM92.2406 33.8546C92.4314 35.2253 92.5309 36.7007 92.5309 38.2756C92.5309 42.6508 91.7085 47.5501 89.2548 53.6937L76.1264 91.6816C88.9135 84.2318 97.5001 70.3616 97.5001 54.5C97.5001 47.0261 95.5893 39.9982 92.2406 33.8546Z" fill="#01579B"/>
<path d="M0.75 54.5C0.75 84.127 24.8569 108.25 54.4973 108.25C84.1431 108.25 108.25 84.127 108.25 54.5C108.25 24.873 84.1431 0.75 54.5 0.75C24.8569 0.75 0.75 24.873 0.75 54.5ZM6.11156 54.5C6.11156 27.8293 27.8104 6.12769 54.4973 6.12769C81.1842 6.12769 102.888 27.8293 102.888 54.5C102.888 81.1708 81.1842 102.878 54.5 102.878C27.8185 102.878 6.11156 81.1708 6.11156 54.5Z" fill="#01579B"/>
</svg>
